<?xml version="1.0" encoding="UTF-8"?>
<svg version="1.1" xmlns="http://www.w3.org/2000/svg" width="497" height="512">
<path d="M0 0 C7.25882762 1.53295775 14.45673856 2.80352474 21.8203125 3.73046875 C24.375 4.125 24.375 4.125 26.375 5.125 C26.375 6.115 26.375 7.105 26.375 8.125 C22.99340159 9.06138484 19.79105613 9.29024071 16.28271484 9.41479492 C-1.75227231 9.93850751 -1.75227231 9.93850751 -16.625 19.125 C-18.23712579 21.41228958 -19.40735657 23.58824286 -20.625 26.125 C-19.985625 26.228125 -19.34625 26.33125 -18.6875 26.4375 C-18.006875 26.664375 -17.32625 26.89125 -16.625 27.125 C-16.13 28.61 -16.13 28.61 -15.625 30.125 C-13.98465807 30.85404086 -12.31198082 31.51155243 -10.625 32.125 C-9.48224609 32.82302734 -9.48224609 32.82302734 -8.31640625 33.53515625 C3.07559401 40.26453811 16.18969259 41.61040461 29.01464844 43.58496094 C34.92477794 44.53477251 40.804713 45.64517499 46.6875 46.75 C47.78924561 46.95625 48.89099121 47.1625 50.02612305 47.375 C52.12658163 47.76836702 54.22677291 48.16316472 56.32666016 48.55957031 C58.40754441 48.94554884 60.49070992 49.31937692 62.57568359 49.68261719 C63.5755127 49.85696289 64.5753418 50.03130859 65.60546875 50.2109375 C66.50031982 50.36353027 67.3951709 50.51612305 68.31713867 50.67333984 C70.375 51.125 70.375 51.125 71.375 52.125 C74.65879933 52.77220442 77.99373991 53.13597637 81.3125 53.5625 C82.33142334 53.69519287 83.35034668 53.82788574 84.40014648 53.96459961 C92.23222456 54.94472382 100.06557222 55.62358205 107.9375 56.1875 C133.29208187 58.0209001 133.29208187 58.0209001 135.97265625 60.75390625 C136.43542969 61.20636719 136.89820313 61.65882813 137.375 62.125 C138.71625796 61.82514007 140.048663 61.4851653 141.375 61.125 C144.72627952 60.8841895 148.07839846 60.89409937 151.4375 60.875 C152.34822266 60.854375 153.25894531 60.83375 154.19726562 60.8125 C155.07189453 60.80734375 155.94652344 60.8021875 156.84765625 60.796875 C158.04273804 60.78285645 158.04273804 60.78285645 159.26196289 60.76855469 C161.85827762 61.20652343 162.73018274 62.12548293 164.375 64.125 C165.07625 63.63 165.7775 63.135 166.5 62.625 C169.74619719 60.9313319 171.76840156 60.87337685 175.375 61.125 C175.045 62.775 174.715 64.425 174.375 66.125 C173.715 66.125 173.055 66.125 172.375 66.125 C172.375 66.785 172.375 67.445 172.375 68.125 C173.23480469 68.10179687 174.09460938 68.07859375 174.98046875 68.0546875 C176.16253906 68.03664063 177.34460938 68.01859375 178.5625 68 C179.71105469 67.97679687 180.85960937 67.95359375 182.04296875 67.9296875 C185.5258757 67.98333027 188.8099882 68.51528523 192.23803711 69.12011719 C199.48713301 70.2577824 206.57267051 70.40421635 213.8984375 70.3984375 C215.25640798 70.4070337 216.61437014 70.41704464 217.97232056 70.42837524 C223.66184757 70.47393579 229.35131154 70.49921423 235.04101562 70.50585938 C238.55111014 70.51094095 242.06066559 70.5355064 245.57057571 70.57118607 C247.51488374 70.58541742 249.45931149 70.57843496 251.40365601 70.57064819 C259.41266076 70.65784581 266.3002832 71.8638124 273.92054749 74.13085938 C279.67319493 75.7863867 285.54300418 76.74273371 291.4375 77.75 C292.58798828 77.95367187 293.73847656 78.15734375 294.92382812 78.3671875 C302.02777743 79.6088862 309.14005415 80.68129054 316.28979492 81.62451172 C320.0076312 82.22762673 323.46812964 83.24499242 327.0390625 84.41796875 C329.36006999 85.12048105 331.60908689 85.54430997 334 85.9375 C344.54882048 87.96739921 354.7435537 91.93018802 363.26171875 98.51171875 C365.53622574 100.24807991 367.92029046 101.65860232 370.375 103.125 C380.65849896 111.86597412 383.91993545 125.59131908 385.125 138.5625 C385.22235083 140.08250042 385.3117235 141.60320022 385.375 143.125 C386.40560547 143.41503906 386.40560547 143.41503906 387.45703125 143.7109375 C388.35808594 143.97132813 389.25914062 144.23171875 390.1875 144.5 C391.08082031 144.75523437 391.97414063 145.01046875 392.89453125 145.2734375 C395.375 146.125 395.375 146.125 398.375 148.125 C398.560625 149.1975 398.74625 150.27 398.9375 151.375 C399.60298138 154.21788976 400.11095847 154.95525902 402.6171875 156.56640625 C403.95136719 157.24509766 403.95136719 157.24509766 405.3125 157.9375 C410.08021101 160.4916309 410.08021101 160.4916309 411.453125 163.44140625 C411.86214299 165.15875741 412.2420606 166.88327972 412.59375 168.61328125 C413.74150971 172.30332873 416.09562225 174.33672765 418.94921875 176.84765625 C422.45702981 182.4505435 420.21169366 190.11016334 418.84179688 196.18554688 C418.62587891 197.09369141 418.40996094 198.00183594 418.1875 198.9375 C417.89262695 200.3287207 417.89262695 200.3287207 417.59179688 201.74804688 C416.59497723 206.00216639 415.98130159 208.51116671 412.859375 211.671875 C411.18592208 212.65068709 409.50331474 213.61399417 407.8125 214.5625 C403.7499463 217.16670109 401.69494855 219.71189388 400.625 224.4375 C400.5425 225.324375 400.46 226.21125 400.375 227.125 C401.695 227.785 403.015 228.445 404.375 229.125 C404.375 230.445 404.375 231.765 404.375 233.125 C403.78332031 232.89683594 403.19164062 232.66867187 402.58203125 232.43359375 C396.56986896 230.1248737 396.56986896 230.1248737 390.375 231.125 C388.89 232.115 388.89 232.115 387.375 233.125 C384.99609375 233.7109375 384.99609375 233.7109375 382.375 234.125 C381.58222656 234.26164063 380.78945313 234.39828125 379.97265625 234.5390625 C371.8888037 235.21167889 366.98304408 231.80006648 360.64453125 227.36328125 C357.41937018 225.15537528 354.40397306 223.65070073 350.8046875 222.20703125 C348.24139069 221.06549875 345.85334165 219.70220273 343.42211914 218.30566406 C334.57968974 213.28601529 325.50360784 210.46643596 315.72753906 207.80224609 C313.33784291 207.11430326 310.9984861 206.33187553 308.6484375 205.51953125 C305.24621335 204.35751193 301.95265563 203.5836738 298.375 203.125 C298.66632813 203.84300781 298.95765625 204.56101562 299.2578125 205.30078125 C300.67962993 208.89109382 302.03700133 212.5028901 303.375 216.125 C303.61557129 216.76276367 303.85614258 217.40052734 304.10400391 218.05761719 C311.14942011 237.08165853 313.66575158 257.58142842 316.65332031 277.5612793 C318.37941469 289.08113593 320.81207557 299.79385464 326.375 310.125 C326.375 310.785 326.375 311.445 326.375 312.125 C327.035 312.125 327.695 312.125 328.375 312.125 C329.6640625 313.8046875 329.6640625 313.8046875 331 316 C331.44601562 316.71929687 331.89203125 317.43859375 332.3515625 318.1796875 C333.375 320.125 333.375 320.125 333.375 322.125 C334.035 322.125 334.695 322.125 335.375 322.125 C336.41289581 323.76833504 337.41067924 325.43743867 338.375 327.125 C339.035 327.785 339.695 328.445 340.375 329.125 C340.375 330.115 340.375 331.105 340.375 332.125 C341.365 332.455 342.355 332.785 343.375 333.125 C344.69921875 334.5859375 344.69921875 334.5859375 346.0625 336.5 C346.58585937 337.22445313 347.10921875 337.94890625 347.6484375 338.6953125 C348.21820313 339.49710937 348.78796875 340.29890625 349.375 341.125 C350.64420488 342.87618141 351.91512621 344.6261197 353.1875 346.375 C353.87199219 347.31859375 354.55648438 348.2621875 355.26171875 349.234375 C357.31910687 352.04854729 359.40342067 354.83993358 361.5 357.625 C362.60988281 359.10806641 362.60988281 359.10806641 363.7421875 360.62109375 C365.17307814 362.53139487 366.61162772 364.43508519 368.05957031 366.33251953 C390.13241579 395.26840026 390.13241579 395.26840026 388.375 413.125 C387.611875 413.846875 386.84875 414.56875 386.0625 415.3125 C383.26229832 418.24294362 382.99601588 419.06286112 382.1875 422.8125 C380.20923217 430.52890142 373.81909231 435.82893846 367.375 440.125 C359.33807138 442.25362626 349.52832251 442.18447798 341.64453125 439.484375 C336.88156228 436.63151234 334.33319006 431.68430299 331.375 427.125 C330.00483912 425.2930158 328.60978739 423.47931626 327.1875 421.6875 C326.57519531 420.90503906 325.96289062 420.12257813 325.33203125 419.31640625 C321.23770922 414.73174625 316.36937558 411.82630053 311.0625 408.875 C310.41732422 408.51148438 309.77214844 408.14796875 309.10742188 407.7734375 C307.53218584 406.88663795 305.95390286 406.00525437 304.375 405.125 C304.375 404.465 304.375 403.805 304.375 403.125 C303.83101563 403.04765625 303.28703125 402.9703125 302.7265625 402.890625 C299.49099119 401.83718318 297.38261284 400.01798943 294.75 397.875 C293.78835938 397.10671875 292.82671875 396.3384375 291.8359375 395.546875 C289.36042137 393.11065278 288.3659179 391.41251584 287.375 388.125 C286.715 388.125 286.055 388.125 285.375 388.125 C285.12105469 387.60550781 284.86710937 387.08601563 284.60546875 386.55078125 C283.03787429 383.37449435 281.46820634 380.2781247 279.625 377.25 C278.375 375.125 278.375 375.125 278.375 373.125 C277.715 373.125 277.055 373.125 276.375 373.125 C267.11792586 361.64622807 265.26217278 346.34603118 265.18896484 332.09228516 C265.17154115 330.29692466 265.1539875 328.50156541 265.13632202 326.70620728 C265.12857128 325.7638686 265.12082054 324.82152992 265.11283493 323.85063553 C265.06637037 318.77778792 264.98976558 313.70535366 264.91796875 308.6328125 C264.82814674 302.21554396 264.7468129 295.79862199 264.70263672 289.38085938 C264.68895738 256.43469837 264.68895738 256.43469837 257.23670959 224.54945374 C256.0967838 221.34222782 255.13023837 218.09234365 254.16329956 214.82962036 C253.01876474 210.98696692 251.84230308 207.19610361 250.23828125 203.51953125 C249.29566173 200.90493501 249.21742109 198.882631 249.375 196.125 C241.5565434 195.17525256 233.40744784 194.21065384 225.6015625 195.62890625 C221.53898509 196.25353982 217.60188854 196.2326903 213.5 196.1875 C212.71625 196.18298828 211.9325 196.17847656 211.125 196.17382812 C209.20829986 196.16214093 207.29163952 196.14420908 205.375 196.125 C206.64567109 203.93425274 208.47511552 211.45358355 210.625 219.0625 C214.45462953 232.97020746 217.52325966 246.98815073 220.375 261.125 C220.61524902 262.30852051 220.85549805 263.49204102 221.10302734 264.71142578 C221.80736514 268.20164132 222.50035089 271.69386275 223.1875 275.1875 C223.39455566 276.22712891 223.60161133 277.26675781 223.81494141 278.33789062 C225.97090913 289.53366574 226.54021651 300.46991661 226.50537109 311.85766602 C226.50003469 313.92406643 226.5053372 315.99024696 226.51171875 318.05664062 C226.52887955 342.31478333 226.52887955 342.31478333 223.1875 352.875 C222.85975586 353.94476074 222.85975586 353.94476074 222.52539062 355.03613281 C220.26177861 362.05970642 217.28922365 368.42401223 211.8125 373.5 C209.18139818 376.33349427 208.39634912 378.40749969 207.0625 382 C204.98786325 387.35728985 202.71815115 390.1488112 198.2109375 393.6171875 C196.1298482 395.17014172 196.1298482 395.17014172 194.4375 398.125 C190.86445506 403.32215628 186.12494682 407.36112588 180 409.0625 C178.205625 409.0934375 178.205625 409.0934375 176.375 409.125 C175.48296875 409.16109375 174.5909375 409.1971875 173.671875 409.234375 C165.27414712 409.45891318 160.62768223 407.88012131 154.375 402.125 C151.90729875 399.71748659 149.50387093 397.2576352 147.1015625 394.78515625 C143.81079596 391.57453732 140.30945069 388.69047603 136.74804688 385.78710938 C132.45999451 382.2638052 128.76347505 378.64607736 125.3125 374.3125 C121.70935469 370.12569185 117.60167408 367.55104099 112.8984375 364.72265625 C109.86424201 362.80162536 107.75094055 360.79793311 105.375 358.125 C104.776875 357.568125 104.17875 357.01125 103.5625 356.4375 C102.375 355.125 102.375 355.125 102.375 353.125 C101.385 352.795 100.395 352.465 99.375 352.125 C99.04166667 350.79166667 98.70833333 349.45833333 98.375 348.125 C97.385 347.795 96.395 347.465 95.375 347.125 C94.70833333 345.45833333 94.04166667 343.79166667 93.375 342.125 C92.385 341.795 91.395 341.465 90.375 341.125 C90.40722656 340.54234375 90.43945312 339.9596875 90.47265625 339.359375 C90.36357703 331.65111023 87.03633415 327.31719236 82.30859375 321.59375 C80.375 319.125 80.375 319.125 80.375 317.125 C85.24237294 317.76569546 89.20808113 319.80475284 93.5625 321.9375 C98.98148399 324.54084458 104.38405537 327.03807466 109.99609375 329.203125 C113.78282279 330.67056023 117.51941673 332.2568285 121.265625 333.82421875 C125.49878837 335.59512754 129.73792303 337.351619 133.9765625 339.109375 C135.46166264 339.73824477 136.93250227 340.40375114 138.375 341.125 C141.83286015 341.62507794 141.83286015 341.62507794 145.375 341.125 C151.46295579 335.03704421 149.55780464 321.35501845 149.75 313.375 C150.10368343 301.15443374 150.89513481 288.99757413 151.875 276.8125 C151.94080261 275.98826538 152.00660522 275.16403076 152.07440186 274.31481934 C152.26516105 271.94267755 152.45959485 269.57087854 152.65625 267.19921875 C152.71354279 266.50130722 152.77083557 265.80339569 152.8298645 265.08433533 C153.10836363 261.81032841 153.45178375 258.56745219 153.90014648 255.31176758 C154.55106231 250.24106769 154.60492257 245.16886724 154.69140625 240.0625 C154.7225779 238.5146582 154.7225779 238.5146582 154.75437927 236.93554688 C154.81934105 233.66542704 154.87850965 230.39523245 154.9375 227.125 C154.98073607 224.89712794 155.02435192 222.66926321 155.06835938 220.44140625 C155.1749671 215.00268133 155.27682885 209.5638834 155.375 204.125 C140.17579469 206.13390879 140.17579469 206.13390879 125.375 210 C107.29919831 215.53593194 88.29295657 218.82771783 69.375 219.125 C69.375 219.785 69.375 220.445 69.375 221.125 C66.66760565 223.10941839 63.90210669 224.93941897 61.08398438 226.75976562 C57.30875201 229.17825032 57.30875201 229.17825032 55.375 233.125 C53.66707302 253.33447053 54.99788547 275.24081295 67.375 292.125 C68.39079837 293.78208522 69.39137947 295.44861447 70.375 297.125 C70.73722656 297.72441406 71.09945312 298.32382812 71.47265625 298.94140625 C75.40609544 306.05981644 76.0411374 313.67180859 76.83203125 321.65234375 C76.91243652 322.4427002 76.9928418 323.23305664 77.07568359 324.04736328 C77.22983661 325.60319625 77.37268667 327.16020424 77.50244141 328.71826172 C77.85936516 332.42780719 78.40109787 335.51574835 79.953125 338.921875 C81.75220144 342.97473951 81.28413747 345.94135856 80.375 350.125 C80.26027344 350.7746875 80.14554688 351.424375 80.02734375 352.09375 C78.20523535 361.00969791 73.80677109 367.92137629 66.375 373.125 C63.58238491 374.93128721 60.7745123 376.69757109 57.92578125 378.4140625 C55.30425248 380.05273958 55.30425248 380.05273958 53.16796875 382.3359375 C51.375 384.125 51.375 384.125 49.375 384.125 C49.1171875 384.723125 48.859375 385.32125 48.59375 385.9375 C46.93469093 388.91529834 44.68620849 390.49253237 42.03125 392.5625 C40.27400077 394.04057722 40.27400077 394.04057722 39.37890625 396.12109375 C38.19035948 398.4935626 36.88700687 399.54884912 34.8125 401.1875 C31.54146925 403.94944367 28.8964679 406.8237651 26.25 410.1875 C14.30384567 425.08940386 1.19236593 438.5646168 -18.625 441.125 C-22.8469265 441.44134031 -26.55915777 441.48028074 -30.625 440.125 C-31.9553125 440.8365625 -31.9553125 440.8365625 -33.3125 441.5625 C-37.19896825 443.39573974 -40.43201416 443.88955596 -44.625 443.125 C-47.19215548 442.0039926 -49.27820316 440.68953122 -51.625 439.125 C-51.31486025 435.84555935 -50.87054288 434.38700649 -48.5859375 431.94921875 C-47.73257813 431.24410156 -46.87921875 430.53898437 -46 429.8125 C-41.90898952 426.31931627 -38.38504235 422.73293684 -35 418.55859375 C-34.54625 418.08550781 -34.0925 417.61242187 -33.625 417.125 C-32.965 417.125 -32.305 417.125 -31.625 417.125 C-31.5321875 416.55910156 -31.439375 415.99320312 -31.34375 415.41015625 C-30.44353765 412.54806806 -29.04078351 410.86980276 -27.125 408.5625 C-26.39925781 407.67820312 -25.67351563 406.79390625 -24.92578125 405.8828125 C-23.44404521 404.1067418 -21.96227692 402.33069802 -20.48046875 400.5546875 C-16.0722308 395.23303088 -11.84159167 389.81698067 -7.75 384.25 C-7.28553467 383.61940674 -6.82106934 382.98881348 -6.3425293 382.33911133 C-3.31151826 378.18041117 -0.6513092 373.91385955 1.91015625 369.44921875 C2.41417969 368.57910156 2.91820313 367.70898438 3.4375 366.8125 C3.94410156 365.92949219 4.45070313 365.04648437 4.97265625 364.13671875 C5.43542969 363.47285156 5.89820312 362.80898438 6.375 362.125 C7.035 362.125 7.695 362.125 8.375 362.125 C8.48328125 361.39796875 8.5915625 360.6709375 8.703125 359.921875 C9.422387 356.92773782 10.48175381 354.9669244 12.125 352.375 C14.52887009 348.49797437 16.8366589 344.60312104 19.01953125 340.59765625 C20.03795574 338.73983867 21.08129287 336.89564323 22.13671875 335.05859375 C30.07188752 320.96826262 31.57342383 308.00401169 31.5625 292.0625 C31.56241943 290.94504395 31.56233887 289.82758789 31.56225586 288.67626953 C31.47398278 275.4130073 30.62538473 262.09073755 28.8125 248.9453125 C28.33805778 244.80241526 28.26239477 240.78758854 28.3125 236.625 C28.31701172 235.89796875 28.32152344 235.1709375 28.32617188 234.421875 C28.33778807 232.65621319 28.35571559 230.8905947 28.375 229.125 C9.90439369 236.6267276 9.90439369 236.6267276 -7.0625 246.9375 C-13.69488605 251.74102212 -18.68934197 253.64261593 -26.9375 252.5625 C-29.17528587 252.12535113 -31.40525369 251.64606721 -33.625 251.125 C-35.14867188 250.76921875 -35.14867188 250.76921875 -36.703125 250.40625 C-52.3646696 245.97837875 -62.16332893 234.26759549 -70.625 221.125 C-71.12700928 220.54419678 -71.62901855 219.96339355 -72.14624023 219.36499023 C-77.77773741 212.32252454 -77.17791013 205.70454145 -76.5625 197.0625 C-76.49257087 195.72605863 -76.4254951 194.38946479 -76.36132812 193.05273438 C-76.16585298 189.40447402 -75.91316609 185.76698012 -75.625 182.125 C-75.56151367 181.25174072 -75.49802734 180.37848145 -75.43261719 179.47875977 C-75.23046875 177.3125 -75.23046875 177.3125 -74.625 174.125 C-71.39817728 171.74329751 -69.02953674 171.17467995 -65.0625 170.6875 C-61.55836183 170.41537568 -61.55836183 170.41537568 -59.25 168.125 C-55.63539853 165.37101793 -52.11116782 165.08093155 -47.625 165.125 C-46.965 165.455 -46.305 165.785 -45.625 166.125 C-45.2109375 169.06640625 -45.2109375 169.06640625 -45 172.6875 C-44.92523438 173.88503906 -44.85046875 175.08257812 -44.7734375 176.31640625 C-44.72445312 177.24324219 -44.67546875 178.17007813 -44.625 179.125 C-39.96377031 180.98372838 -36.00544943 181.35750524 -31.0625 181 C-30.33144043 180.95214355 -29.60038086 180.90428711 -28.84716797 180.85498047 C-21.08114545 180.24405988 -13.51874026 178.71296571 -5.89453125 177.16796875 C-0.92690358 176.16460092 4.05424134 175.33375735 9.0625 174.5625 C10.21709717 174.37747925 10.21709717 174.37747925 11.39501953 174.1887207 C15.36283415 173.55859733 19.32410283 173.00587517 23.31640625 172.5546875 C33.0212917 171.62901071 33.0212917 171.62901071 40.75 166.1875 C41.63712663 164.84124642 42.51229307 163.48703125 43.375 162.125 C45.1015625 159.8671875 45.1015625 159.8671875 47.375 158.125 C50.5625 157.84765625 50.5625 157.84765625 54.375 158.1875 C55.06489014 158.24405762 55.75478027 158.30061523 56.46557617 158.35888672 C63.05534913 158.95642959 69.60180204 159.99774024 76.10742188 161.19555664 C82.40362106 162.26924196 88.05808589 161.88773795 94.375 161.125 C96.5609527 160.90638809 98.74716364 160.69034678 100.93359375 160.4765625 C103.22669128 160.23559737 105.5196592 159.99339586 107.8125 159.75 C108.95009766 159.6365625 110.08769531 159.523125 111.25976562 159.40625 C123.68362346 158.24367579 123.68362346 158.24367579 135.30566406 154.07421875 C138.15975463 152.76502761 140.76041483 152.6558329 143.88671875 152.4140625 C145.18786621 152.30586182 146.48901367 152.19766113 147.82958984 152.08618164 C148.51865417 152.03172882 149.20771851 151.977276 149.91766357 151.9211731 C160.44302467 151.08117494 170.84808521 150.04157419 181.25 148.1875 C199.45479991 144.97819058 217.97451335 143.74074119 236.375 142.125 C236.375 140.475 236.375 138.825 236.375 137.125 C240.665 136.795 244.955 136.465 249.375 136.125 C249.705 134.805 250.035 133.485 250.375 132.125 C251.66296166 130.09548465 252.99058 128.08998322 254.375 126.125 C258.55746733 126.31953336 260.07756428 126.83432418 263.125 129.8125 C265.4044265 132.63139077 266.31652833 135.68496707 267.375 139.125 C267.98754639 139.09470703 268.60009277 139.06441406 269.23120117 139.03320312 C285.74028642 138.25312822 302.22481865 138.01486275 318.75 138 C319.71690765 137.99750244 320.68381531 137.99500488 321.68002319 137.99243164 C332.62770636 137.96922486 343.46577702 138.10927383 354.375 139.125 C349.70654618 132.25142865 345.49675964 126.52978775 338.375 122.125 C337.75753906 121.72152344 337.14007813 121.31804687 336.50390625 120.90234375 C329.98366757 116.94952849 322.78726525 114.45282651 315.6796875 111.7734375 C312.96920749 110.75160574 310.30037316 109.6767996 307.6484375 108.51171875 C304.02067156 106.97489666 300.4000547 105.91294205 296.609375 104.87109375 C294.375 104.125 294.375 104.125 291.375 102.125 C290.715 102.785 290.055 103.445 289.375 104.125 C286.29296875 104.171875 286.29296875 104.171875 282.5625 103.875 C281.33917969 103.78734375 280.11585938 103.6996875 278.85546875 103.609375 C275.64616167 103.16273743 273.33641664 102.3549043 270.375 101.125 C267.62082716 100.63946367 267.62082716 100.63946367 264.8125 100.4375 C263.88308594 100.35113281 262.95367187 100.26476562 261.99609375 100.17578125 C259.54878838 100.12836699 257.69700084 100.39835033 255.375 101.125 C255.045 100.135 254.715 99.145 254.375 98.125 C244.145 97.795 233.915 97.465 223.375 97.125 C222.715 98.445 222.055 99.765 221.375 101.125 C219.25 101.875 219.25 101.875 217.375 102.125 C217.705 103.445 218.035 104.765 218.375 106.125 C214.70089215 107.30071451 211.20570817 107.19866746 207.375 107.125 C207.375 105.475 207.375 103.825 207.375 102.125 C206.67761719 102.28613281 205.98023438 102.44726562 205.26171875 102.61328125 C202.18803279 103.15814304 199.3077052 103.29311984 196.1875 103.3125 C195.14207031 103.32667969 194.09664063 103.34085937 193.01953125 103.35546875 C190.375 103.125 190.375 103.125 188.375 101.125 C186.89 101.62 186.89 101.62 185.375 102.125 C185.375 103.115 185.375 104.105 185.375 105.125 C170.02944374 105.88480105 154.73904914 106.26109886 139.375 106.125 C139.375 107.115 139.375 108.105 139.375 109.125 C134.49342149 110.2674971 129.63557396 110.44727499 124.63867188 110.64257812 C120.55883904 110.75321233 120.55883904 110.75321233 117.375 113.125 C116.385 113.125 115.395 113.125 114.375 113.125 C114.045 114.445 113.715 115.765 113.375 117.125 C112.41980469 117.15078125 111.46460938 117.1765625 110.48046875 117.203125 C101.67573551 117.52615718 101.67573551 117.52615718 93.3125 120.0625 C86.88871092 122.74793363 80.28175171 122.90478515 73.41625977 123.40161133 C68.64419328 123.76564084 64.30861113 124.1942835 59.75 125.75 C52.42959347 128.0506992 44.73247881 127.41710858 37.14892578 127.19873047 C34.35809585 127.12455069 31.56898234 127.09403664 28.77734375 127.06640625 C-4.58241425 126.46569032 -4.58241425 126.46569032 -16.625 118.125 C-18.31605285 117.39114688 -20.00776855 116.65840201 -21.7109375 115.953125 C-25.08912534 114.49154169 -28.34516501 112.79368797 -31.625 111.125 C-31.625 110.465 -31.625 109.805 -31.625 109.125 C-32.346875 108.8775 -33.06875 108.63 -33.8125 108.375 C-39.76429632 105.72975719 -44.83747814 101.05811347 -47.55126953 95.08691406 C-50.79381337 86.11276147 -52.47946646 76.65184955 -52.625 67.125 C-52.63869629 66.37428223 -52.65239258 65.62356445 -52.66650391 64.85009766 C-52.76164521 58.93872797 -52.72360257 53.03596462 -52.625 47.125 C-52.61984375 46.06796875 -52.6146875 45.0109375 -52.609375 43.921875 C-52.2649735 35.70543925 -48.90141447 28.54953553 -45.625 21.125 C-44.965 21.125 -44.305 21.125 -43.625 21.125 C-43.356875 20.2175 -43.08875 19.31 -42.8125 18.375 C-41.72368368 15.39508166 -40.76108899 13.43909641 -38.625 11.125 C-37.965 11.125 -37.305 11.125 -36.625 11.125 C-36.356875 10.485625 -36.08875 9.84625 -35.8125 9.1875 C-34.625 7.125 -34.625 7.125 -31.625 6.125 C-31.625 5.465 -31.625 4.805 -31.625 4.125 C-30.04425436 3.30747697 -28.46028777 2.49618003 -26.875 1.6875 C-25.99328125 1.23503906 -25.1115625 0.78257813 -24.203125 0.31640625 C-16.19012718 -3.38657002 -8.3108951 -1.82762367 0 0 Z M290.375 85.125 C290.375 85.455 290.375 85.785 290.375 86.125 C293.015 86.125 295.655 86.125 298.375 86.125 C298.375 85.135 298.375 84.145 298.375 83.125 C295.49104263 83.125 293.08022185 84.18405327 290.375 85.125 Z M283.375 85.125 C284.695 85.455 286.015 85.785 287.375 86.125 C287.375 86.785 287.375 87.445 287.375 88.125 C284.735 88.125 282.095 88.125 279.375 88.125 C281.25438172 90.42327312 281.25438172 90.42327312 284.3125 90.4375 C287.37248982 90.40488518 287.37248982 90.40488518 289.25 88.625 C289.62125 88.13 289.9925 87.635 290.375 87.125 C290.045 86.465 289.715 85.805 289.375 85.125 C287.395 85.125 285.415 85.125 283.375 85.125 Z M295.375 94.125 C294.385 96.105 293.395 98.085 292.375 100.125 C295.015 100.125 297.655 100.125 300.375 100.125 C300.375 99.135 300.375 98.145 300.375 97.125 C299.385 97.125 298.395 97.125 297.375 97.125 C297.045 96.135 296.715 95.145 296.375 94.125 C296.045 94.125 295.715 94.125 295.375 94.125 Z M213.375 95.125 C216.2174854 96.69773568 216.2174854 96.69773568 219.375 97.125 C219.375 96.465 219.375 95.805 219.375 95.125 C217.395 95.125 215.415 95.125 213.375 95.125 Z " fill="#000000" transform="translate(76.625,68.875)"/>
<path d="M0 0 C2.375 0.25 2.375 0.25 5 1 C6.3125 3.0625 6.3125 3.0625 7 5 C7.66 5 8.32 5 9 5 C9.33 6.65 9.66 8.3 10 10 C10.73089844 9.80148437 11.46179688 9.60296875 12.21484375 9.3984375 C15.3715944 8.94684063 16.68182662 9.34795021 19.5625 10.625 C20.42101562 10.99496094 21.27953125 11.36492188 22.1640625 11.74609375 C23.09992188 12.15988281 24.03578125 12.57367188 25 13 C27.14412785 13.89990767 29.28997446 14.79573092 31.4375 15.6875 C32.42621094 16.10386719 33.41492188 16.52023438 34.43359375 16.94921875 C38.54732518 18.63353192 41.76314317 19.13430381 46.1875 19.3125 C52.21679097 19.70049319 57.6160897 20.81922194 63.46240234 22.40844727 C69.35861814 23.95309565 75.27716378 24.91799746 81.3125 25.75 C82.20710938 25.87745605 83.10171875 26.00491211 84.0234375 26.13623047 C90.37393683 26.96979196 96.59957001 27.13852079 103 27 C103 26.34 103 25.68 103 25 C103.89605957 24.98018066 104.79211914 24.96036133 105.71533203 24.93994141 C109.11138935 24.86080063 112.50709262 24.77408996 115.90283203 24.68261719 C117.35913924 24.64485752 118.81552309 24.60992376 120.27197266 24.578125 C128.80713343 24.38963284 137.06214402 23.83819247 145.51171875 22.50830078 C149.21129321 21.96921105 152.8963119 21.6083967 156.62109375 21.2890625 C158.54985352 21.12277344 158.54985352 21.12277344 160.51757812 20.953125 C163.12634148 20.73475318 165.73573566 20.52378822 168.34570312 20.3203125 C176.41253012 19.6093653 183.78743231 18.21033238 191.52124023 15.92163086 C196.31047025 14.65281597 201.04823319 14.1010574 205.9765625 13.58984375 C209.25300563 12.95064102 211.18626473 11.74397649 214 10 C224.36267844 7.15026343 235.10146034 7.68983877 245.703125 8.48828125 C253.1434602 8.99470262 260.57548088 9.12673161 268.03125 9.2109375 C269.20008728 9.225233 270.36892456 9.2395285 271.57318115 9.2542572 C276.4398625 9.31182874 281.30643737 9.36643262 286.17333984 9.40136719 C303.51113087 9.53585854 319.46458153 10.37846416 336 16 C337.09957031 16.34804688 338.19914062 16.69609375 339.33203125 17.0546875 C350.89750701 20.88896224 361.59991669 26.6190807 369.625 36 C370.19476563 36.66 370.76453125 37.32 371.3515625 38 C384.63341858 54.11447941 389.40015734 80.43041583 388 101 C386.83696843 107.22725565 384.74739611 110.7273435 380 115 C378.9590934 116.64142963 377.95495674 118.30712215 377 120 C375.5625 122.3125 375.5625 122.3125 374 124 C372.68 124 371.36 124 370 124 C369.97421875 123.27554688 369.9484375 122.55109375 369.921875 121.8046875 C369.86515625 120.83789062 369.8084375 119.87109375 369.75 118.875 C369.70359375 117.92367187 369.6571875 116.97234375 369.609375 115.9921875 C368.72764339 111.66265923 366.96923069 108.54871466 363.44970703 105.78076172 C346.07976652 94.62233131 325.92169758 91.83527521 305.84375 89.5 C304.46403456 89.33825413 304.46403456 89.33825413 303.05644608 89.17324066 C280.29966117 86.54535381 257.48727833 85.42261275 234.61199951 84.39715576 C229.17047747 84.1497812 223.72983531 83.88434326 218.2890625 83.62109375 C191.71119774 82.33690118 191.71119774 82.33690118 165.12155151 81.33416748 C158.940271 81.11658219 152.98273794 80.42838662 146.87890625 79.40234375 C143.26349188 78.89706874 139.77303 78.96638865 136.1328125 79.0625 C133.18474394 78.97610971 130.700844 78.13719747 128 77 C128 76.34 128 75.68 128 75 C125.35491639 74.63917123 122.70920453 74.28604648 120.0625 73.9375 C119.30775391 73.83373047 118.55300781 73.72996094 117.77539062 73.62304688 C115.85525872 73.37334362 113.92771856 73.18209719 112 73 C111.67 73.33 111.34 73.66 111 74 C109.00041636 74.04080783 106.99954746 74.04254356 105 74 C104.67 73.34 104.34 72.68 104 72 C100.0707688 71.02158782 100.0707688 71.02158782 96.12890625 71.5390625 C93.40927885 72.12789926 91.4541696 71.66738004 88.75 71.0625 C87.85796875 70.86785156 86.9659375 70.67320313 86.046875 70.47265625 C85.37140625 70.31667969 84.6959375 70.16070312 84 70 C84 68.68 84 67.36 84 66 C83.175 65.896875 82.35 65.79375 81.5 65.6875 C78.28158528 65.05531139 75.47719197 64.05426124 72.42626953 62.88500977 C66.52262998 60.73158922 60.46983931 58.97773391 54.46289062 57.13671875 C47.36633029 54.91119586 40.70535697 52.20862213 34 49 C32.39511719 48.28263672 32.39511719 48.28263672 30.7578125 47.55078125 C19.58551729 42.29615576 9.47909871 34.91514801 2 25 C1.56945313 24.443125 1.13890625 23.88625 0.6953125 23.3125 C-1.57060557 20.18709577 -2 19.00898529 -2 15 C2.16391819 15.70724725 3.48609277 17.67623656 6.109375 20.90234375 C12.29192277 27.76190604 20.22295268 33.10334058 28 38 C28 37.34 28 36.68 28 36 C26.68 35.34 25.36 34.68 24 34 C24 33.01 24 32.02 24 31 C23.01 30.67 22.02 30.34 21 30 C19.61328125 28.37109375 19.61328125 28.37109375 18.3125 26.4375 C17.65701172 25.47650391 17.65701172 25.47650391 16.98828125 24.49609375 C16.66214844 24.00238281 16.33601563 23.50867188 16 23 C15.67 23.66 15.34 24.32 15 25 C14.01 24.67 13.02 24.34 12 24 C10.85110829 21.68759963 9.8666906 19.46033457 8.9375 17.0625 C7.11002985 12.14877591 7.11002985 12.14877591 4 8 C4 7.01 4 6.02 4 5 C3.01 4.67 2.02 4.34 1 4 C0.3125 1.9375 0.3125 1.9375 0 0 Z " fill="#000000" transform="translate(51,0)"/>
<path d="M0 0 C1.65 0 3.3 0 5 0 C5.66 1.65 6.32 3.3 7 5 C4.69 5 2.38 5 0 5 C0 3.35 0 1.7 0 0 Z " fill="#000000" transform="translate(301,167)"/>
</svg>
